# File created by Blade
# Date/Time:  Tue Jan 27 18:35:03 2015
# Frame Rate: 120.000 fps
#------------------------------------------------------
:FULLY-SPECIFIED
:DEGREES
2319
root -5.483460 31.836560 -1.233158 6.993800 -4.400148 0.302277
Spine -3.851148 -11.194999 -4.809797
Head 26.982695 -12.551062 10.227374
LeftShoulder -16.786393 17.287205 11.784853
LeftArm 21.206356 -26.691096 -79.624789
LeftForeArm 131.609073 0.000000 130.994197
LeftHand 6.957615 -0.000000 1.146636
LeftHandThumb1 -26.253704 0.000000 33.147579
RightShoulder -15.939901 -7.868976 -9.125329
RightArm 2.374125 -29.984621 88.300440
RightForeArm -22.550302 -0.000000 33.389949
RightHand -15.413237 -0.000000 7.615578
RightHandThumb1 -24.326973 -0.000000 -32.862282
LeftUpLeg -3.049218 8.851122 -5.464550
LeftLeg 1.457858 -0.000000 -0.000000
LeftFoot -21.104799 27.567174 -18.488918
LeftToeBase 10.013435 -0.000000 -0.000000
RightUpLeg -10.999885 7.037456 -1.955869
RightLeg 11.142644 -0.000000 -0.000000
RightFoot -13.925909 -3.506745 5.027295
RightToeBase 1.136022 -0.000000 -0.000000
2320
root -5.458527 31.838493 -1.291273 7.026818 -4.678730 0.301001
Spine -3.661462 -11.196134 -4.839545
Head 27.599602 -12.886450 10.056314
LeftShoulder -16.825551 17.331615 11.809445
LeftArm 21.173573 -26.852498 -79.631294
LeftForeArm 131.521769 -0.000000 131.095631
LeftHand 6.856812 -0.000000 1.078245
LeftHandThumb1 -26.253704 0.000000 33.147579
RightShoulder -16.030872 -7.877226 -9.119047
RightArm 2.396053 -29.955190 88.288708
RightForeArm -22.607185 0.000000 33.652028
RightHand -15.477899 -0.000000 7.564675
RightHandThumb1 -24.326973 -0.000000 -32.862282
LeftUpLeg -3.207955 9.237173 -5.565989
LeftLeg 1.484882 -0.000000 -0.000000
LeftFoot -21.011506 27.520961 -18.366344
LeftToeBase 10.045982 -0.000000 -0.000000
RightUpLeg -11.251099 7.175456 -2.032486
RightLeg 11.274559 -0.000000 -0.000000
RightFoot -13.814125 -3.403714 5.054143
RightToeBase 1.102696 -0.000000 -0.000000
2321
root -5.432250 31.840420 -1.354827 7.080434 -4.950432 0.304103
Spine -3.466269 -11.248782 -4.867960
Head 28.175527 -13.097628 9.887898
LeftShoulder -16.922508 17.391392 11.790616
LeftArm 21.227328 -27.036391 -79.657277
LeftForeArm 131.436779 -0.000000 131.177904
LeftHand 6.793275 -0.000000 1.128500
LeftHandThumb1 -26.253704 0.000000 33.147579
RightShoulder -16.065141 -7.888201 -9.128924
RightArm 2.402282 -29.937316 88.280862
RightForeArm -22.611753 -0.000000 33.935373
RightHand -15.446651 -0.000000 7.435247
RightHandThumb1 -24.326973 -0.000000 -32.862282
LeftUpLeg -3.368320 9.479949 -5.660467
LeftLeg 1.459980 -0.000000 -0.000000
LeftFoot -20.937960 27.546542 -18.341436
LeftToeBase 10.028969 -0.000000 -0.000000
RightUpLeg -11.534025 7.228844 -2.109811
RightLeg 11.411031 -0.000000 -0.000000
RightFoot -13.693019 -3.191992 5.104888
RightToeBase 1.141521 -0.000000 -0.000000
2322
root -5.404784 31.842986 -1.418344 7.146508 -5.221476 0.298426
Spine -3.279439 -11.290237 -4.885813
Head 28.713273 -13.290941 9.726580
LeftShoulder -16.997443 17.465329 11.793387
LeftArm 21.267613 -27.212712 -79.701105
LeftForeArm 131.310817 -0.000000 131.262767
LeftHand 6.698791 -0.000000 1.148330
LeftHandThumb1 -26.253704 0.000000 33.147579
RightShoulder -16.109271 -7.936950 -9.128169
RightArm 2.446156 -29.878267 88.263388
RightForeArm -22.649852 0.000000 34.191216
RightHand -15.513451 0.000000 7.403848
RightHandThumb1 -24.326973 -0.000000 -32.862282
LeftUpLeg -3.514536 9.682354 -5.747167
LeftLeg 1.381562 -0.000000 -0.000000
LeftFoot -20.837516 27.595584 -18.314433
LeftToeBase 10.007509 -0.000000 -0.000000
RightUpLeg -11.832037 7.252757 -2.176198
RightLeg 11.551345 -0.000000 -0.000000
RightFoot -13.545474 -2.995626 5.107624
RightToeBase 1.050372 -0.000000 -0.000000
2323
root -5.380363 31.845345 -1.480281 7.200852 -5.500852 0.277445
Spine -3.066757 -11.300751 -4.896753
Head 29.181183 -13.483236 9.578958
LeftShoulder -17.040935 17.526567 11.802178
LeftArm 21.265388 -27.403127 -79.701570
LeftForeArm 131.107881 -0.000000 131.371950
LeftHand 6.642596 -0.000000 0.998965
LeftHandThumb1 -26.253704 0.000000 33.147579
RightShoulder -16.165247 -7.950771 -9.110774
RightArm 2.357759 -29.713893 88.277400
RightForeArm -22.797159 -0.000000 34.561541
RightHand -15.527524 -0.000000 7.541392
RightHandThumb1 -24.326973 -0.000000 -32.862282
LeftUpLeg -3.645932 9.919882 -5.815271
LeftLeg 1.298910 -0.000000 -0.000000
LeftFoot -20.766876 27.638741 -18.308121
LeftToeBase 10.028011 -0.000000 -0.000000
RightUpLeg -12.109434 7.223023 -2.213210
RightLeg 11.680971 -0.000000 -0.000000
RightFoot -13.396094 -2.728736 5.109321
RightToeBase 1.053165 -0.000000 -0.000000
2324
root -5.351731 31.847570 -1.548910 7.275168 -5.795711 0.275677
Spine -2.839471 -11.327216 -4.921705
Head 29.565847 -13.631941 9.451729
LeftShoulder -17.126239 17.576527 11.797752
LeftArm 21.288780 -27.592038 -79.717470
LeftForeArm 130.939474 -0.000000 131.485684
LeftHand 6.568512 -0.000000 0.821339
LeftHandThumb1 -26.253704 0.000000 33.147579
RightShoulder -16.189221 -7.953691 -9.128604
RightArm 2.320399 -29.648100 88.293069
RightForeArm -22.831585 -0.000000 34.834253
RightHand -15.577205 -0.000000 7.429971
RightHandThumb1 -24.326973 -0.000000 -32.862282
LeftUpLeg -3.828494 10.229941 -5.917897
LeftLeg 1.251641 -0.000000 -0.000000
LeftFoot -20.653599 27.607664 -18.256298
LeftToeBase 10.004971 -0.000000 -0.000000
RightUpLeg -12.410558 7.220375 -2.279369
RightLeg 11.781122 -0.000000 -0.000000
RightFoot -13.239316 -2.519311 5.073559
RightToeBase 1.023231 -0.000000 -0.000000
2325
root -5.325041 31.851467 -1.614525 7.388514 -6.080411 0.265659
Spine -2.678608 -11.372330 -4.936117
Head 29.976043 -13.755332 9.338938
LeftShoulder -17.225893 17.662589 11.824623
LeftArm 21.310808 -27.720788 -79.761828
LeftForeArm 130.781597 -0.000000 131.558855
LeftHand 6.427425 -0.000000 0.812624
LeftHandThumb1 -26.253704 0.000000 33.147579
RightShoulder -16.202659 -8.035571 -9.110090
RightArm 2.317138 -29.581831 88.260470
RightForeArm -22.869638 -0.000000 35.121181
RightHand -15.572762 -0.000000 7.308646
RightHandThumb1 -24.326973 -0.000000 -32.862282
LeftUpLeg -4.032469 10.678224 -6.024265
LeftLeg 1.166560 -0.000000 -0.000000
LeftFoot -20.460601 27.453584 -18.138984
LeftToeBase 9.971585 -0.000000 -0.000000
RightUpLeg -12.690905 7.246519 -2.347754
RightLeg 11.765048 -0.000000 -0.000000
RightFoot -13.033509 -2.287364 5.165821
RightToeBase 1.062048 -0.000000 -0.000000
2326
root -5.299647 31.855476 -1.681228 7.487605 -6.343218 0.256737
Spine -2.486952 -11.418604 -4.963491
Head 30.350383 -13.909732 9.227812
LeftShoulder -17.277406 17.695499 11.821415
LeftArm 21.347307 -27.945659 -79.760387
LeftForeArm 130.574375 -0.000000 131.649876
LeftHand 6.434547 -0.000000 0.912561
LeftHandThumb1 -26.253704 0.000000 33.147579
RightShoulder -16.206767 -8.091176 -9.099894
RightArm 2.268642 -29.478522 88.253854
RightForeArm -22.937652 -0.000000 35.394955
RightHand -15.560487 0.000000 7.444206
RightHandThumb1 -24.326973 -0.000000 -32.862282
LeftUpLeg -4.209583 10.997818 -6.113487
LeftLeg 1.062941 -0.000000 -0.000000
LeftFoot -20.318346 27.353932 -18.120944
LeftToeBase 9.963386 -0.000000 -0.000000
RightUpLeg -12.950480 7.215691 -2.406295
RightLeg 11.736461 -0.000000 -0.000000
RightFoot -12.821350 -2.027547 5.182978
RightToeBase 1.044872 -0.000000 -0.000000
2327
root -5.274958 31.859201 -1.747267 7.606272 -6.556610 0.237754
Spine -2.311325 -11.479074 -4.970196
Head 30.694543 -14.013039 9.132101
LeftShoulder -17.322472 17.805074 11.829646
LeftArm 21.445906 -28.130593 -79.810420
LeftForeArm 130.369774 -0.000000 131.728971
LeftHand 6.347909 -0.000000 0.942128
LeftHandThumb1 -26.253704 0.000000 33.147579
RightShoulder -16.239151 -8.174878 -9.088457
RightArm 2.253310 -29.424203 88.243500
RightForeArm -22.954155 -0.000000 35.598546
RightHand -15.578097 0.000000 7.323423
RightHandThumb1 -24.326973 -0.000000 -32.862282
LeftUpLeg -4.404574 11.219730 -6.186767
LeftLeg 0.960159 -0.000000 -0.000000
LeftFoot -20.198015 27.291607 -18.127721
LeftToeBase 9.989413 -0.000000 -0.000000
RightUpLeg -13.240013 7.025628 -2.425775
RightLeg 11.756709 -0.000000 -0.000000
RightFoot -12.613039 -1.680355 5.198210
RightToeBase 1.061268 -0.000000 -0.000000
2328
root -5.246334 31.863143 -1.822251 7.708620 -6.754908 0.221024
Spine -2.065475 -11.531390 -4.984126
Head 30.929290 -14.121231 9.078793
LeftShoulder -17.341954 17.853807 11.881082
LeftArm 21.517900 -28.246663 -79.869369
LeftForeArm 130.143251 -0.000000 131.805462
LeftHand 6.220171 0.000000 0.922427
LeftHandThumb1 -26.253704 0.000000 33.147579
RightShoulder -16.277701 -8.255627 -9.069405
RightArm 2.279870 -29.369378 88.205352
RightForeArm -22.961928 0.000000 35.802872
RightHand -15.696537 -0.000000 7.325223
RightHandThumb1 -24.326973 -0.000000 -32.862282
LeftUpLeg -4.626204 11.369391 -6.270451
LeftLeg 0.911318 -0.000000 -0.000000
LeftFoot -20.090011 27.316637 -18.106074
LeftToeBase 9.997519 -0.000000 -0.000000
RightUpLeg -13.522956 6.838181 -2.446714
RightLeg 11.765416 -0.000000 -0.000000
RightFoot -12.378268 -1.379454 5.171672
RightToeBase 0.956340 -0.000000 -0.000000
2329
root -5.221141 31.867248 -1.895136 7.844793 -6.990724 0.190817
Spine -1.881021 -11.573227 -4.985205
Head 31.216848 -14.185994 8.988494
LeftShoulder -17.350141 17.842320 11.915181
LeftArm 21.521387 -28.428808 -79.849783
LeftForeArm 129.957853 -0.000000 131.901918
LeftHand 6.162048 -0.000000 0.878496
LeftHandThumb1 -26.253704 0.000000 33.147579
RightShoulder -16.264140 -8.308416 -9.077610
RightArm 2.220287 -29.333223 88.216287
RightForeArm -22.906519 -0.000000 35.950868
RightHand -15.529475 -0.000000 7.125671
RightHandThumb1 -24.326973 -0.000000 -32.862282
LeftUpLeg -4.847976 11.482035 -6.334443
LeftLeg 0.808704 -0.000000 -0.000000
LeftFoot -20.020095 27.368783 -18.175405
LeftToeBase 10.024559 -0.000000 -0.000000
RightUpLeg -13.780059 6.716475 -2.466456
RightLeg 11.641754 -0.000000 -0.000000
RightFoot -12.118935 -1.069082 5.248258
RightToeBase 0.979737 -0.000000 -0.000000
2330
root -5.202799 31.871833 -1.974270 7.975933 -7.202756 0.144644
Spine -1.647421 -11.596051 -4.999491
Head 31.407638 -14.251406 8.967835
LeftShoulder -17.335209 17.841357 11.983569
LeftArm 21.594376 -28.639851 -79.893172
LeftForeArm 129.735568 -0.000000 131.958749
LeftHand 6.140265 -0.000000 0.859290
LeftHandThumb1 -26.253704 0.000000 33.147579
RightShoulder -16.285905 -8.238662 -9.108028
RightArm 2.045574 -29.263797 88.326232
RightForeArm -22.815459 -0.000000 36.057088
RightHand -15.623123 -0.000000 7.152270
RightHandThumb1 -24.326973 -0.000000 -32.862282
LeftUpLeg -5.093757 11.615371 -6.372557
LeftLeg 0.758401 -0.000000 -0.000000
LeftFoot -19.966119 27.343822 -18.341858
LeftToeBase 9.921745 -0.000000 -0.000000
RightUpLeg -14.036910 6.621699 -2.456870
RightLeg 11.516833 -0.000000 -0.000000
RightFoot -11.837688 -0.800453 5.366673
RightToeBase 1.011525 -0.000000 -0.000000
2331
root -5.179393 31.875941 -2.044195 8.127096 -7.454670 0.096335
Spine -1.479151 -11.577490 -4.991183
Head 31.627415 -14.350441 8.921348
LeftShoulder -17.363399 17.851088 12.023394
LeftArm 21.667771 -28.739106 -79.884752
LeftForeArm 129.554890 -0.000000 132.003273
LeftHand 6.018584 -0.000000 0.932879
LeftHandThumb1 -26.253704 0.000000 33.147579
RightShoulder -16.345410 -8.277461 -9.107284
RightArm 2.001829 -29.338160 88.299391
RightForeArm -22.762341 -0.000000 36.143309
RightHand -15.714498 0.000000 7.265903
RightHandThumb1 -24.326973 -0.000000 -32.862282
LeftUpLeg -5.309174 11.782232 -6.425767
LeftLeg 0.623608 -0.000000 -0.000000
LeftFoot -19.857867 27.382289 -18.368105
LeftToeBase 9.911649 -0.000000 -0.000000
RightUpLeg -14.285654 6.536445 -2.459083
RightLeg 11.352592 -0.000000 -0.000000
RightFoot -11.555073 -0.502767 5.458350
RightToeBase 0.989595 -0.000000 -0.000000
